<svg width="4177" height="1859" xmlns="http://www.w3.org/2000/svg" xmlns:xlink="http://www.w3.org/1999/xlink" overflow="hidden"><defs><clipPath id="clip0"><rect x="6" y="304" width="4177" height="1859"/></clipPath><clipPath id="clip1"><rect x="1494" y="616" width="106" height="134"/></clipPath><clipPath id="clip2"><rect x="1494" y="616" width="106" height="134"/></clipPath><clipPath id="clip3"><rect x="1480" y="616" width="134" height="134"/></clipPath><clipPath id="clip4"><rect x="2042" y="616" width="106" height="134"/></clipPath><clipPath id="clip5"><rect x="2042" y="616" width="106" height="134"/></clipPath><clipPath id="clip6"><rect x="2028" y="616" width="134" height="134"/></clipPath><clipPath id="clip7"><rect x="1283" y="1998" width="106" height="134"/></clipPath><clipPath id="clip8"><rect x="1283" y="1998" width="106" height="134"/></clipPath><clipPath id="clip9"><rect x="1269" y="1998" width="134" height="134"/></clipPath></defs><g clip-path="url(#clip0)" transform="translate(-6 -304)"><path d="M736 475 4177.9 475" stroke="#000000" stroke-width="10.3125" stroke-miterlimit="8" fill="none" fill-rule="evenodd"/><text font-family="Times New Roman,Times New Roman_MSFontService,sans-serif" font-weight="400" font-size="83" transform="matrix(1 0 0 1 396.112 505)">Client<tspan font-size="83" x="-340.165" y="294">P</tspan>rimary Replica<tspan font-size="83" x="-196.901" y="582">2nd Replica</tspan><tspan font-size="83" x="-183.017" y="871">3rd Replica</tspan></text><path d="M736 769 4177.9 769" stroke="#000000" stroke-width="10.3125" stroke-miterlimit="8" fill="none" fill-rule="evenodd"/><path d="M736 1056 4177.9 1056" stroke="#000000" stroke-width="10.3125" stroke-miterlimit="8" fill="none" fill-rule="evenodd"/><path d="M736 1346 4177.9 1346" stroke="#000000" stroke-width="10.3125" stroke-miterlimit="8" fill="none" fill-rule="evenodd"/><path d="M1192.07 478.071 1240.97 745.122 1230.83 746.98 1181.93 479.929ZM1250.19 738.193 1240.54 771.411 1219.76 743.765Z" fill="#FF0000"/><text font-family="Times New Roman,Times New Roman_MSFontService,sans-serif" font-weight="400" font-size="83" transform="matrix(1 0 0 1 1055.85 411)">Write<tspan font-size="83" x="184.617" y="0">-</tspan><tspan font-size="83" x="212.117" y="0">Lock</tspan></text><path d="M1698.02 476.82 1761.17 745.423 1751.13 747.783 1687.98 479.18ZM1770.03 738.043 1762.05 771.7 1739.91 745.124Z"/><text font-family="Times New Roman,Times New Roman_MSFontService,sans-serif" font-weight="400" font-size="83" transform="matrix(1 0 0 1 1549.01 411)">Update<tspan font-size="83" x="238.333" y="0">-</tspan>Primary</text><path d="M1979 1866.84 2164.92 1866.84 2164.92 1877.16 1979 1877.16ZM2159.77 1856.53 2190.7 1872 2159.77 1887.47Z" fill="#FF0000"/><text font-family="Times New Roman,Times New Roman_MSFontService,sans-serif" font-weight="400" font-size="83" transform="matrix(1 0 0 1 2256.03 1902)">CAS</text><path d="M1979 1706.84 2164.92 1706.84 2164.92 1717.16 1979 1717.16ZM2159.77 1696.53 2190.7 1712 2159.77 1727.47Z"/><text font-family="Times New Roman,Times New Roman_MSFontService,sans-serif" font-weight="400" font-size="83" transform="matrix(1 0 0 1 2256.03 1742)">One<tspan font-size="83" x="137.5" y="0">-</tspan>sided Verbs</text><path d="M1733.02 476.82 1796.17 745.423 1786.13 747.783 1722.98 479.18ZM1805.03 738.043 1797.05 771.7 1774.91 745.124Z"/><text font-family="Times New Roman,Times New Roman_MSFontService,sans-serif" font-weight="400" font-size="83" transform="matrix(1 0 0 1 3275.73 1737)">Persistent Write</text><path d="M2999 1682.84 3184.92 1682.84 3184.92 1693.16 2999 1693.16ZM3179.77 1672.53 3210.7 1688 3179.77 1703.47Z"/><path d="M2999 1721.84 3184.92 1721.84 3184.92 1732.16 2999 1732.16ZM3179.77 1711.53 3210.7 1727 3179.77 1742.47Z"/><rect x="1282.5" y="1668.5" width="109" height="88" stroke="#000000" stroke-width="4.58333" stroke-miterlimit="8"/><text font-family="Times New Roman,Times New Roman_MSFontService,sans-serif" font-weight="400" font-size="83" transform="matrix(1 0 0 1 1455.37 1737)">Old data</text><rect x="1282" y="1834" width="109" height="87" stroke="#000000" stroke-width="10.3125" stroke-miterlimit="8" fill="none"/><text font-family="Times New Roman,Times New Roman_MSFontService,sans-serif" font-weight="400" font-size="83" transform="matrix(1 0 0 1 1455.37 1903)">New data</text><rect x="817" y="430" width="109" height="88" stroke="#000000" stroke-width="10.3125" stroke-miterlimit="8" fill="none"/><rect x="817.5" y="725.5" width="108" height="88" stroke="#000000" stroke-width="4.58333" stroke-miterlimit="8"/><rect x="817.5" y="1012.5" width="108" height="87.9999" stroke="#000000" stroke-width="4.58333" stroke-miterlimit="8"/><rect x="817.5" y="1302.5" width="108" height="88" stroke="#000000" stroke-width="4.58333" stroke-miterlimit="8"/><rect x="1906" y="724" width="109" height="88" stroke="#000000" stroke-width="10.3125" stroke-miterlimit="8" fill="none"/><path d="M5.11191-0.674748 10.5099 40.2205 0.286073 41.57-5.11191 0.674748ZM14.5584 70.892 19.9564 111.787 9.73254 113.137 4.33456 72.2415ZM24.0049 142.459 29.4028 183.354 19.179 184.704 13.781 143.808ZM33.4513 214.025 38.8493 254.921 28.6255 256.27 23.2275 215.375ZM49.6238 257.743 38.3365 290.439 18.9523 261.791Z" transform="matrix(1 0 0 -1 1280 770.438)"/><path d="M5.11191-0.674748 10.5099 40.2205 0.286073 41.57-5.11191 0.674748ZM14.5584 70.892 19.9564 111.787 9.73254 113.137 4.33456 72.2415ZM24.0049 142.459 29.4028 183.354 19.179 184.704 13.781 143.808ZM33.4513 214.025 38.8493 254.921 28.6255 256.27 23.2275 215.375ZM49.6238 257.743 38.3365 290.439 18.9523 261.791Z" transform="matrix(1 0 0 -1 1846 760.439)"/><text font-family="Times New Roman,Times New Roman_MSFontService,sans-serif" font-weight="400" font-size="83" transform="matrix(1 0 0 1 2224.2 411)">Update<tspan font-size="83" x="238.333" y="0">-</tspan>Replicas</text><rect x="2709" y="1012" width="108" height="87" stroke="#000000" stroke-width="10.3125" stroke-miterlimit="8" fill="none"/><path d="M2999 1866.84 3184.92 1866.84 3184.92 1877.16 2999 1877.16ZM3179.77 1856.53 3210.7 1872 3179.77 1887.47Z"/><text font-family="Times New Roman,Times New Roman_MSFontService,sans-serif" font-weight="400" font-size="83" transform="matrix(1 0 0 1 3275.73 1902)">ACK</text><path d="M2312.11 481.341 2383.11 1032.55 2372.88 1033.87 2301.89 482.659ZM2392.68 1026.12 2381.29 1058.78 2361.99 1030.07Z"/><path d="M2347.11 481.337 2418.09 1029.09 2407.86 1030.41 2336.89 482.663ZM2427.65 1022.65 2416.29 1055.32 2396.97 1026.62Z"/><path d="M5.14039-0.404092 8.37313 40.719-1.90765 41.5272-5.14039 0.404092ZM10.7977 71.5614 14.0304 112.685 3.74964 113.493 0.516903 72.3696ZM16.455 143.527 19.6877 184.65 9.40694 185.458 6.1742 144.335ZM22.1123 215.492 25.345 256.615 15.0642 257.424 11.8315 216.301ZM27.7696 287.458 31.0023 328.581 20.7215 329.389 17.4888 288.266ZM33.4269 359.423 36.6596 400.546 26.3788 401.355 23.1461 360.231ZM39.0842 431.389 42.3169 472.512 32.0361 473.32 28.8034 432.197ZM44.7414 503.354 47.9742 544.477 37.6934 545.286 34.4607 504.162ZM58.9494 552.503 45.9528 584.558 28.1071 554.928Z" transform="matrix(1 0 0 -1 2570 1058.56)"/><path d="M2421.12 474.373 2524.97 1322.04 2514.73 1323.29 2410.88 475.627ZM2534.57 1315.67 2522.98 1348.26 2503.87 1319.43Z"/><path d="M2456.12 474.373 2559.94 1322.04 2549.7 1323.3 2445.88 475.627ZM2569.55 1315.67 2557.95 1348.26 2538.84 1319.43Z"/><path d="M5.13895-0.422055 8.51539 40.6895-1.76251 41.5336-5.13895 0.422055ZM11.0477 71.5232 14.4242 112.635 4.14626 113.479 0.76982 72.3673ZM16.9565 143.468 20.3329 184.58 10.055 185.424 6.67859 144.313ZM22.8652 215.414 26.2417 256.525 15.9638 257.369 12.5874 216.258ZM28.774 287.359 32.1505 328.471 21.8726 329.315 18.4961 288.203ZM34.6828 359.304 38.0592 400.416 27.7813 401.26 24.4049 360.148ZM40.5915 431.25 43.968 472.361 33.6901 473.205 30.3137 432.094ZM46.5003 503.195 49.8768 544.306 39.5989 545.151 36.2224 504.039ZM52.4091 575.14 55.7855 616.252 45.5076 617.096 42.1312 575.984ZM58.3179 647.085 61.6943 688.197 51.4164 689.041 48.04 647.93ZM64.2266 719.031 67.6031 760.142 57.3252 760.986 53.9487 719.875ZM70.1354 790.976 73.5118 832.087 63.2339 832.932 59.8575 791.82ZM84.8151 843.728 71.9305 875.828 53.9814 846.26Z" transform="matrix(1 0 0 -1 2602 1345.83)"/><rect x="2708" y="1302" width="108" height="88" stroke="#000000" stroke-width="10.3125" stroke-miterlimit="8" fill="none"/><path d="M3061.07 475.071 3109.97 742.123 3099.83 743.98 3050.93 476.929ZM3119.19 735.193 3109.54 768.411 3088.76 740.766Z" fill="#FF0000"/><text font-family="Times New Roman,Times New Roman_MSFontService,sans-serif" font-weight="400" font-size="83" transform="matrix(1 0 0 1 2924.44 409)">Write<tspan font-size="83" x="184.617" y="0">-</tspan><tspan font-size="83" x="212.117" y="0">Un</tspan><tspan font-size="83" x="312.95" y="0">l</tspan><tspan font-size="83" x="335.867" y="0">ock</tspan></text><path d="M5.11191-0.674748 10.5099 40.2205 0.286073 41.57-5.11191 0.674748ZM14.5584 70.892 19.9564 111.787 9.73254 113.137 4.33456 72.2415ZM24.0049 142.459 29.4028 183.354 19.179 184.704 13.781 143.808ZM33.4513 214.025 38.8493 254.921 28.6255 256.27 23.2275 215.375ZM49.6238 257.743 38.3365 290.439 18.9523 261.791Z" transform="matrix(1 0 0 -1 3149 768.439)"/><rect x="1361.5" y="721.5" width="109" height="88" stroke="#000000" stroke-width="4.58333" stroke-miterlimit="8"/><g clip-path="url(#clip1)"><g clip-path="url(#clip2)"><g clip-path="url(#clip3)"><path d="M50.0245 50.0909 33.2832 50.0909 33.2832 30.5594C33.2832 26.3077 34.1247 22.3438 35.8077 18.6678 37.4907 14.9918 39.8159 11.7587 42.7832 8.96853 45.7506 6.17832 49.2494 3.98601 53.2797 2.39161 57.31 0.797203 61.7168-8.65886e-08 66.5-3.23006e-15 70.7518-3.23006e-15 74.8485 0.797203 78.7902 2.39161 82.732 3.98601 86.2308 6.17832 89.2867 8.96853 92.3427 11.7587 94.7786 14.9918 96.5944 18.6678 98.4103 22.3438 99.3182 26.3077 99.3182 30.5594L99.3182 50.0909 83.2413 50.0909 83.2413 34.2797C83.2413 28.6993 81.6912 24.3811 78.5909 21.3252 75.4907 18.2692 71.2832 16.7413 65.9685 16.7413 61.1853 16.7413 57.3322 18.2692 54.4091 21.3252 51.486 24.3811 50.0245 28.6993 50.0245 34.2797L50.0245 50.0909ZM107.29 58.063C109.682 58.063 111.741 58.9266 113.469 60.6539 115.196 62.3811 116.059 64.4406 116.059 66.8322L116.059 108.021C116.059 110.413 115.639 112.649 114.797 114.731 113.956 116.812 112.804 118.628 111.343 120.178 109.881 121.728 108.154 122.946 106.161 123.832 104.168 124.718 101.976 125.161 99.5839 125.161L32.486 125.161C30.0944 125.161 27.9242 124.718 25.9755 123.832 24.0268 122.946 22.366 121.773 20.993 120.311 19.6201 118.85 18.5571 117.145 17.8042 115.196 17.0513 113.247 16.6748 111.166 16.6748 108.951L16.6748 66.8322C16.6748 64.4406 17.5163 62.3811 19.1993 60.6539 20.8823 58.9266 22.9196 58.063 25.3112 58.063L33.2832 58.063 50.0245 58.063 83.2413 58.063 99.3182 58.063 107.29 58.063Z" transform="matrix(1.00336 0 0 1 1480.28 616)"/></g></g></g><g clip-path="url(#clip4)"><g clip-path="url(#clip5)"><g clip-path="url(#clip6)"><path d="M50.0245 50.0909 33.2832 50.0909 33.2832 30.5594C33.2832 26.3077 34.1247 22.3438 35.8077 18.6678 37.4907 14.9918 39.8159 11.7587 42.7832 8.96853 45.7506 6.17832 49.2494 3.98601 53.2797 2.39161 57.31 0.797203 61.7168-8.65886e-08 66.5-3.23006e-15 70.7518-3.23006e-15 74.8485 0.797203 78.7902 2.39161 82.732 3.98601 86.2308 6.17832 89.2867 8.96853 92.3427 11.7587 94.7786 14.9918 96.5944 18.6678 98.4103 22.3438 99.3182 26.3077 99.3182 30.5594L99.3182 50.0909 83.2413 50.0909 83.2413 34.2797C83.2413 28.6993 81.6912 24.3811 78.5909 21.3252 75.4907 18.2692 71.2832 16.7413 65.9685 16.7413 61.1853 16.7413 57.3322 18.2692 54.4091 21.3252 51.486 24.3811 50.0245 28.6993 50.0245 34.2797L50.0245 50.0909ZM107.29 58.063C109.682 58.063 111.741 58.9266 113.469 60.6539 115.196 62.3811 116.059 64.4406 116.059 66.8322L116.059 108.021C116.059 110.413 115.639 112.649 114.797 114.731 113.956 116.812 112.804 118.628 111.343 120.178 109.881 121.728 108.154 122.946 106.161 123.832 104.168 124.718 101.976 125.161 99.5839 125.161L32.486 125.161C30.0944 125.161 27.9242 124.718 25.9755 123.832 24.0268 122.946 22.366 121.773 20.993 120.311 19.6201 118.85 18.5571 117.145 17.8042 115.196 17.0513 113.247 16.6748 111.166 16.6748 108.951L16.6748 66.8322C16.6748 64.4406 17.5163 62.3811 19.1993 60.6539 20.8823 58.9266 22.9196 58.063 25.3112 58.063L33.2832 58.063 50.0245 58.063 83.2413 58.063 99.3182 58.063 107.29 58.063Z" transform="matrix(1.00336 0 0 1 2028.28 616)"/></g></g></g><rect x="3241" y="721" width="109" height="88" stroke="#000000" stroke-width="10.3125" stroke-miterlimit="8" fill="none"/><g clip-path="url(#clip7)"><g clip-path="url(#clip8)"><g clip-path="url(#clip9)"><path d="M50.0245 50.0909 33.2832 50.0909 33.2832 30.5594C33.2832 26.3077 34.1247 22.3438 35.8077 18.6678 37.4907 14.9918 39.8159 11.7587 42.7832 8.96853 45.7506 6.17832 49.2494 3.98601 53.2797 2.39161 57.31 0.797203 61.7168-8.65886e-08 66.5-3.23006e-15 70.7518-3.23006e-15 74.8485 0.797203 78.7902 2.39161 82.732 3.98601 86.2308 6.17832 89.2867 8.96853 92.3427 11.7587 94.7786 14.9918 96.5944 18.6678 98.4103 22.3438 99.3182 26.3077 99.3182 30.5594L99.3182 50.0909 83.2413 50.0909 83.2413 34.2797C83.2413 28.6993 81.6912 24.3811 78.5909 21.3252 75.4907 18.2692 71.2832 16.7413 65.9685 16.7413 61.1853 16.7413 57.3322 18.2692 54.4091 21.3252 51.486 24.3811 50.0245 28.6993 50.0245 34.2797L50.0245 50.0909ZM107.29 58.063C109.682 58.063 111.741 58.9266 113.469 60.6539 115.196 62.3811 116.059 64.4406 116.059 66.8322L116.059 108.021C116.059 110.413 115.639 112.649 114.797 114.731 113.956 116.812 112.804 118.628 111.343 120.178 109.881 121.728 108.154 122.946 106.161 123.832 104.168 124.718 101.976 125.161 99.5839 125.161L32.486 125.161C30.0944 125.161 27.9242 124.718 25.9755 123.832 24.0268 122.946 22.366 121.773 20.993 120.311 19.6201 118.85 18.5571 117.145 17.8042 115.196 17.0513 113.247 16.6748 111.166 16.6748 108.951L16.6748 66.8322C16.6748 64.4406 17.5163 62.3811 19.1993 60.6539 20.8823 58.9266 22.9196 58.063 25.3112 58.063L33.2832 58.063 50.0245 58.063 83.2413 58.063 99.3182 58.063 107.29 58.063Z" transform="matrix(1.00336 0 0 1 1269.28 1999)"/></g></g></g><text font-family="Times New Roman,Times New Roman_MSFontService,sans-serif" font-weight="400" font-size="83" transform="matrix(1 0 0 1 1456.43 2094)">Write<tspan font-size="83" x="184.617" y="0">-</tspan><tspan font-size="83" x="212.117" y="0">locked</tspan></text></g></svg>